<svg width="656" height="516" viewBox="0 0 656 516" fill="none" xmlns="http://www.w3.org/2000/svg">
<path d="M565.667 257.666C565.667 115.361 450.231 0 307.834 0C165.436 0 50 115.361 50 257.666C50 399.972 165.436 515.333 307.834 515.333C450.231 515.333 565.667 399.972 565.667 257.666Z" fill="#7B4AE2" fill-opacity="0.2"/>
<g filter="url(#filter0_d_21_4106)">
<circle cx="570.143" cy="279.064" r="35.8102" fill="#090E16"/>
</g>
<g clip-path="url(#clip0_21_4106)">
<path fill-rule="evenodd" clip-rule="evenodd" d="M585.251 261.159H555.036C553.491 261.159 552.238 262.411 552.238 263.956V294.171C552.238 295.716 553.491 296.969 555.036 296.969H585.251C586.796 296.969 588.049 295.716 588.049 294.171V263.956C588.049 262.411 586.796 261.159 585.251 261.159ZM573.293 293.066V289.202C573.994 289.79 574.755 290.23 575.577 290.524C576.399 290.818 577.229 290.965 578.066 290.965C578.558 290.965 578.987 290.92 579.353 290.832C579.72 290.743 580.026 290.621 580.272 290.464C580.517 290.307 580.701 290.122 580.821 289.908C580.942 289.695 581.003 289.464 581.003 289.214C581.003 288.876 580.906 288.574 580.713 288.309C580.519 288.043 580.256 287.797 579.921 287.572C579.587 287.347 579.19 287.129 578.731 286.92C578.272 286.711 577.776 286.498 577.245 286.28C575.891 285.717 574.882 285.029 574.218 284.216C573.553 283.403 573.221 282.421 573.221 281.27C573.221 280.368 573.402 279.593 573.765 278.946C574.127 278.298 574.621 277.764 575.245 277.346C575.869 276.927 576.592 276.619 577.414 276.422C578.236 276.225 579.106 276.126 580.024 276.126C580.926 276.126 581.726 276.181 582.423 276.289C583.119 276.398 583.762 276.565 584.35 276.79V280.4C584.06 280.199 583.744 280.022 583.401 279.869C583.059 279.716 582.706 279.589 582.344 279.489C581.981 279.388 581.621 279.314 581.262 279.265C580.904 279.217 580.564 279.193 580.241 279.193C579.798 279.193 579.396 279.235 579.033 279.32C578.671 279.404 578.364 279.523 578.115 279.676C577.865 279.829 577.672 280.012 577.535 280.225C577.398 280.439 577.329 280.678 577.329 280.944C577.329 281.233 577.406 281.493 577.559 281.722C577.712 281.952 577.929 282.169 578.211 282.374C578.493 282.58 578.836 282.781 579.238 282.978C579.641 283.175 580.096 283.378 580.604 283.588C581.297 283.878 581.919 284.185 582.471 284.511C583.023 284.837 583.496 285.206 583.891 285.616C584.285 286.027 584.587 286.495 584.797 287.023C585.006 287.55 585.111 288.164 585.111 288.864C585.111 289.83 584.928 290.641 584.561 291.297C584.195 291.953 583.697 292.484 583.069 292.891C582.441 293.297 581.71 293.589 580.876 293.766C580.042 293.943 579.162 294.031 578.236 294.031C577.285 294.031 576.381 293.951 575.523 293.79C574.665 293.629 573.922 293.388 573.293 293.066ZM571.822 279.587H566.854V293.752H562.918V279.587H557.974V276.406H571.822V279.587Z" fill="#7B4AE2" fill-opacity="0.5"/>
</g>
<g filter="url(#filter1_d_21_4106)">
<circle cx="85.8102" cy="187.748" r="35.8102" fill="#090E16"/>
</g>
<path d="M99.2074 181.449C98.7899 181.306 98.3572 181.17 97.9117 181.041C97.9849 180.742 98.0521 180.447 98.1119 180.157C99.0927 175.397 98.4514 171.561 96.2617 170.298C94.1619 169.088 90.728 170.35 87.26 173.368C86.9265 173.658 86.592 173.966 86.2577 174.288C86.035 174.075 85.8126 173.869 85.5908 173.672C81.9562 170.445 78.313 169.085 76.1254 170.351C74.0277 171.565 73.4065 175.171 74.2893 179.683C74.3746 180.119 74.4742 180.564 74.5869 181.016C74.0713 181.163 73.5735 181.319 73.0973 181.485C68.836 182.97 66.1146 185.299 66.1146 187.714C66.1146 190.208 69.036 192.71 73.4745 194.227C73.8247 194.347 74.1882 194.46 74.5627 194.568C74.4411 195.057 74.3354 195.537 74.2466 196.004C73.4048 200.438 74.0622 203.958 76.1543 205.165C78.3153 206.411 81.942 205.13 85.4735 202.043C85.7526 201.799 86.0327 201.541 86.3133 201.269C86.6771 201.62 87.0402 201.951 87.4014 202.262C90.8221 205.206 94.2006 206.394 96.2907 205.184C98.4496 203.934 99.1511 200.153 98.2403 195.551C98.1707 195.2 98.0898 194.841 97.9988 194.476C98.2535 194.4 98.5036 194.323 98.7474 194.242C103.362 192.713 106.364 190.242 106.364 187.714C106.364 185.29 103.554 182.946 99.2074 181.449ZM98.2066 192.61C97.9865 192.683 97.7607 192.753 97.5306 192.821C97.0212 191.209 96.3337 189.494 95.4924 187.722C96.2953 185.993 96.9562 184.3 97.4513 182.698C97.863 182.817 98.2626 182.943 98.6477 183.075C102.372 184.357 104.644 186.253 104.644 187.714C104.644 189.27 102.191 191.29 98.2066 192.61ZM96.5535 195.885C96.9563 197.92 97.0138 199.76 96.747 201.198C96.5073 202.49 96.0252 203.351 95.4292 203.696C94.1607 204.43 91.4482 203.476 88.5228 200.959C88.1874 200.67 87.8496 200.362 87.5108 200.036C88.6449 198.795 89.7783 197.354 90.8846 195.752C92.8303 195.579 94.6686 195.297 96.3357 194.912C96.4178 195.243 96.4907 195.568 96.5535 195.885ZM79.8364 203.569C78.5971 204.007 77.6101 204.02 77.0135 203.675C75.7439 202.943 75.2161 200.117 75.936 196.325C76.0185 195.891 76.1166 195.445 76.2298 194.989C77.8785 195.353 79.7034 195.616 81.6538 195.774C82.7675 197.341 83.9337 198.781 85.1089 200.042C84.8521 200.29 84.5963 200.526 84.342 200.749C82.7804 202.114 81.2155 203.082 79.8364 203.569ZM74.0305 192.6C72.068 191.929 70.4472 191.058 69.3362 190.106C68.338 189.251 67.8339 188.403 67.8339 187.714C67.8339 186.248 70.019 184.379 73.6632 183.108C74.1054 182.954 74.5683 182.809 75.0487 182.672C75.5523 184.311 76.213 186.024 77.0103 187.756C76.2027 189.514 75.5326 191.254 75.024 192.911C74.6816 192.813 74.3498 192.709 74.0305 192.6ZM75.9767 179.353C75.2203 175.487 75.7227 172.571 76.9868 171.839C78.3333 171.06 81.3109 172.171 84.4491 174.958C84.6497 175.136 84.8511 175.322 85.0531 175.515C83.8836 176.771 82.7281 178.2 81.6243 179.758C79.7314 179.934 77.9194 180.215 76.2534 180.593C76.1487 180.171 76.0559 179.757 75.9767 179.353ZM93.3383 183.64C92.9401 182.952 92.5312 182.28 92.1144 181.627C93.3986 181.789 94.629 182.005 95.7844 182.268C95.4375 183.38 95.0052 184.543 94.4962 185.734C94.1311 185.041 93.745 184.342 93.3383 183.64ZM86.2583 176.744C87.0514 177.603 87.8456 178.562 88.6268 179.603C87.8396 179.566 87.0427 179.547 86.2391 179.547C85.4432 179.547 84.6521 179.566 83.8697 179.602C84.6517 178.571 85.4528 177.613 86.2583 176.744ZM79.1329 183.652C78.7351 184.342 78.3561 185.037 77.9968 185.733C77.496 184.546 77.0677 183.378 76.7178 182.25C77.8662 181.993 79.0907 181.783 80.3668 181.624C79.9441 182.283 79.5318 182.96 79.1329 183.652V183.652ZM80.4035 193.927C79.0852 193.779 77.8422 193.58 76.6941 193.33C77.0496 192.183 77.4874 190.99 77.9987 189.777C78.359 190.473 78.7395 191.168 79.1397 191.86H79.1398C79.5475 192.564 79.9699 193.254 80.4035 193.927ZM86.3059 198.805C85.491 197.926 84.6781 196.953 83.8842 195.907C84.6549 195.937 85.4406 195.953 86.2391 195.953C87.0595 195.953 87.8705 195.934 88.6687 195.899C87.885 196.964 87.0936 197.938 86.3059 198.805ZM94.5126 189.715C95.0506 190.941 95.5041 192.128 95.8642 193.256C94.6972 193.522 93.4372 193.736 92.1097 193.896C92.5275 193.234 92.9399 192.55 93.3452 191.848C93.7552 191.137 94.1445 190.425 94.5126 189.715ZM91.8558 190.989C91.2267 192.08 90.5807 193.121 89.925 194.104C88.7306 194.189 87.4967 194.233 86.2391 194.233C84.9866 194.233 83.7682 194.195 82.595 194.118C81.9128 193.122 81.2529 192.078 80.6277 190.998H80.6278C80.0043 189.921 79.4305 188.835 78.9105 187.755C79.4303 186.673 80.0027 185.585 80.6226 184.51L80.6225 184.511C81.244 183.433 81.8982 182.393 82.5741 181.404C83.7711 181.313 84.9986 181.266 86.239 181.266H86.2391C87.4852 181.266 88.7142 181.314 89.9109 181.405C90.5764 182.387 91.2262 183.423 91.8502 184.501C92.4813 185.592 93.061 186.672 93.5853 187.731C93.0626 188.808 92.4841 189.899 91.8558 190.989ZM95.4028 171.788C96.7506 172.565 97.2748 175.7 96.4279 179.81C96.3739 180.073 96.3131 180.34 96.247 180.611C94.5772 180.225 92.7639 179.939 90.8654 179.76C89.7595 178.186 88.6134 176.754 87.4631 175.514C87.7723 175.217 88.0812 174.933 88.3888 174.665C91.3602 172.079 94.1374 171.058 95.4028 171.788ZM86.2391 184.12C88.2241 184.12 89.8332 185.729 89.8332 187.714C89.8332 189.699 88.2241 191.308 86.2391 191.308C84.2542 191.308 82.645 189.699 82.645 187.714C82.645 185.729 84.2542 184.12 86.2391 184.12Z" fill="#7B4AE2" fill-opacity="0.5"/>
<g filter="url(#filter2_d_21_4106)">
<circle cx="85.8102" cy="416.933" r="35.8102" fill="#090E16"/>
</g>
<g clip-path="url(#clip1_21_4106)">
<path fill-rule="evenodd" clip-rule="evenodd" d="M79.8885 399.028C76.5939 399.028 73.9201 401.702 73.9201 404.996C73.9201 408.291 76.5939 410.965 79.8885 410.965C76.5939 410.965 73.9201 413.639 73.9201 416.933C73.9201 420.228 76.5939 422.902 79.8885 422.902C76.5939 422.902 73.9201 425.575 73.9201 428.87C73.9201 432.165 76.5939 434.838 79.8885 434.838C83.183 434.838 85.8568 432.165 85.8568 428.87L85.8568 416.933C85.8568 420.228 88.5307 422.902 91.8252 422.902C95.1198 422.902 97.7936 420.228 97.7936 416.933C97.7936 413.639 95.1198 410.965 91.8252 410.965C95.1198 410.965 97.7936 408.291 97.7936 404.996C97.7936 401.702 95.1198 399.028 91.8252 399.028H79.8885ZM91.8252 410.965H85.8568L85.8568 416.933C85.8568 413.639 88.5307 410.965 91.8252 410.965Z" fill="#7B4AE2" fill-opacity="0.5"/>
</g>
<defs>
<filter id="filter0_d_21_4106" x="484.333" y="197.254" width="171.62" height="171.62" filterUnits="userSpaceOnUse" color-interpolation-filters="sRGB">
<feFlood flood-opacity="0" result="BackgroundImageFix"/>
<feColorMatrix in="SourceAlpha" type="matrix" values="0 0 0 0 0 0 0 0 0 0 0 0 0 0 0 0 0 0 127 0" result="hardAlpha"/>
<feOffset dy="4"/>
<feGaussianBlur stdDeviation="25"/>
<feComposite in2="hardAlpha" operator="out"/>
<feColorMatrix type="matrix" values="0 0 0 0 0 0 0 0 0 0 0 0 0 0 0 0 0 0 0.5 0"/>
<feBlend mode="normal" in2="BackgroundImageFix" result="effect1_dropShadow_21_4106"/>
<feBlend mode="normal" in="SourceGraphic" in2="effect1_dropShadow_21_4106" result="shape"/>
</filter>
<filter id="filter1_d_21_4106" x="0" y="105.938" width="171.62" height="171.62" filterUnits="userSpaceOnUse" color-interpolation-filters="sRGB">
<feFlood flood-opacity="0" result="BackgroundImageFix"/>
<feColorMatrix in="SourceAlpha" type="matrix" values="0 0 0 0 0 0 0 0 0 0 0 0 0 0 0 0 0 0 127 0" result="hardAlpha"/>
<feOffset dy="4"/>
<feGaussianBlur stdDeviation="25"/>
<feComposite in2="hardAlpha" operator="out"/>
<feColorMatrix type="matrix" values="0 0 0 0 0 0 0 0 0 0 0 0 0 0 0 0 0 0 0.5 0"/>
<feBlend mode="normal" in2="BackgroundImageFix" result="effect1_dropShadow_21_4106"/>
<feBlend mode="normal" in="SourceGraphic" in2="effect1_dropShadow_21_4106" result="shape"/>
</filter>
<filter id="filter2_d_21_4106" x="0" y="335.123" width="171.62" height="171.62" filterUnits="userSpaceOnUse" color-interpolation-filters="sRGB">
<feFlood flood-opacity="0" result="BackgroundImageFix"/>
<feColorMatrix in="SourceAlpha" type="matrix" values="0 0 0 0 0 0 0 0 0 0 0 0 0 0 0 0 0 0 127 0" result="hardAlpha"/>
<feOffset dy="4"/>
<feGaussianBlur stdDeviation="25"/>
<feComposite in2="hardAlpha" operator="out"/>
<feColorMatrix type="matrix" values="0 0 0 0 0 0 0 0 0 0 0 0 0 0 0 0 0 0 0.5 0"/>
<feBlend mode="normal" in2="BackgroundImageFix" result="effect1_dropShadow_21_4106"/>
<feBlend mode="normal" in="SourceGraphic" in2="effect1_dropShadow_21_4106" result="shape"/>
</filter>
<clipPath id="clip0_21_4106">
<rect width="35.8102" height="35.8102" fill="white" transform="translate(552.238 261.159)"/>
</clipPath>
<clipPath id="clip1_21_4106">
<rect width="35.8102" height="35.8102" fill="white" transform="translate(67.9051 399.028)"/>
</clipPath>
</defs>
</svg>
