<?xml version="1.0" standalone="no"?>
<!DOCTYPE svg PUBLIC "-//W3C//DTD SVG 20010904//EN"
 "http://www.w3.org/TR/2001/REC-SVG-20010904/DTD/svg10.dtd">
<svg version="1.0" xmlns="http://www.w3.org/2000/svg"
 width="5120.000000pt" height="5120.000000pt" viewBox="0 0 5120.000000 5120.000000"
 preserveAspectRatio="xMidYMid meet">

<g transform="translate(0.000000,5120.000000) scale(0.100000,-0.100000)"
fill="#000000" stroke="none">
<path d="M7860 37024 c-14 -1 -95 -8 -180 -14 -528 -38 -1207 -139 -1755 -261
-2357 -524 -4317 -1649 -5600 -3213 l-97 -120 6 -130 c28 -552 77 -1015 156
-1476 432 -2515 1699 -4606 3705 -6116 477 -360 1063 -722 1606 -995 l117 -58
-10 -48 c-19 -101 -78 -517 -102 -723 -54 -455 -81 -849 -98 -1389 -35 -1156
80 -2411 328 -3571 33 -155 123 -539 142 -605 7 -24 -2 -55 -45 -170 -438
-1151 -544 -2374 -308 -3554 346 -1726 1399 -3367 3095 -4821 1392 -1193 3207
-2242 5300 -3060 3920 -1533 8650 -2224 13450 -1965 3976 215 7752 1097 10836
2531 540 250 1274 635 1744 914 1745 1033 3115 2230 4040 3530 395 555 707
1119 933 1690 577 1453 629 2965 152 4429 -30 91 -78 229 -108 306 -43 115
-52 146 -45 170 19 66 109 450 142 605 375 1755 435 3605 174 5375 -22 154
-43 294 -45 312 l-5 32 143 72 c1265 633 2378 1505 3251 2548 239 285 537 696
730 1006 901 1443 1389 3065 1489 4942 l12 221 -112 136 c-296 359 -685 750
-1052 1057 -1621 1357 -3887 2217 -6333 2404 -114 9 -210 14 -212 12 -2 -2 27
-69 65 -148 140 -290 254 -612 339 -959 195 -789 235 -1060 236 -1580 0 -504
-31 -740 -185 -1389 -79 -335 -122 -489 -187 -676 -110 -317 -283 -682 -463
-973 -187 -304 -521 -752 -736 -987 -237 -259 -439 -441 -738 -665 -392 -293
-658 -461 -980 -620 -433 -213 -719 -307 -1447 -474 -488 -113 -909 -154
-1373 -135 -393 16 -614 50 -1145 175 -334 79 -480 118 -672 183 -147 49 -148
49 -162 29 -41 -58 -257 -286 -376 -396 -219 -202 -539 -447 -859 -657 -392
-257 -833 -457 -1277 -579 -212 -58 -719 -174 -874 -200 -294 -50 -424 -60
-765 -60 -455 0 -665 27 -1210 155 -568 133 -817 214 -1157 376 l-116 55 -174
-125 c-338 -244 -578 -390 -873 -533 -286 -138 -581 -248 -889 -329 -186 -49
-618 -149 -771 -179 -587 -113 -1253 -113 -1840 0 -153 30 -585 130 -771 179
-404 107 -825 278 -1179 480 -143 81 -440 276 -619 408 l-130 94 -120 -57
c-330 -157 -603 -244 -1211 -384 -515 -118 -899 -157 -1330 -136 -400 20 -710
74 -1340 235 -546 140 -1035 364 -1513 696 -196 136 -382 275 -522 389 -117
96 -429 400 -536 523 l-60 69 -115 -40 c-233 -80 -707 -202 -1084 -277 -629
-126 -1291 -126 -1920 0 -223 44 -681 154 -855 205 -483 140 -959 363 -1385
649 -654 441 -1069 820 -1452 1329 -473 630 -721 1082 -914 1664 -68 209 -226
852 -274 1118 -59 329 -84 746 -67 1083 20 378 54 600 163 1067 138 590 223
853 402 1238 58 124 71 162 59 161 -10 -1 -28 -3 -42 -5z"/>
</g>
</svg>
